<svg width="177" height="50" viewBox="0 0 177 50" fill="none" xmlns="http://www.w3.org/2000/svg">
<path d="M44.88 39V38.6L45.6781 38.28C46.2101 38.0933 46.556 37.84 46.7156 37.52C46.9019 37.2 46.9949 36.7733 46.9949 36.24V15.36C46.9949 14.8267 46.9151 14.4 46.7555 14.08C46.5959 13.76 46.2367 13.5067 45.6781 13.32L44.88 13V12.6H55.1354V13L54.3373 13.32C53.8053 13.5067 53.4461 13.76 53.2599 14.08C53.1003 14.4 53.0205 14.8267 53.0205 15.36V36.24C53.0205 36.7733 53.1003 37.2 53.2599 37.52C53.4461 37.8133 53.8053 38.0667 54.3373 38.28L55.1354 38.6V39H44.88ZM56.8027 39V38.6L57.3613 38.44C58.2924 38.1733 58.758 37.52 58.758 36.48V23.96C58.758 23.3733 58.6648 22.9467 58.4787 22.68C58.2924 22.3867 57.9333 22.1867 57.4013 22.08L56.8027 21.92V21.52L63.6263 19.2L64.0254 19.6L64.3446 22C65.2757 21.1733 66.3264 20.4933 67.497 19.96C68.6675 19.4267 69.8247 19.16 70.9687 19.16C72.7245 19.16 74.0679 19.64 74.999 20.6C75.9567 21.56 76.4356 23.0267 76.4356 25V36.52C76.4356 37.56 76.941 38.2133 77.9519 38.48L78.3111 38.6V39H68.8937V38.6L69.4124 38.44C70.3435 38.1467 70.8091 37.4933 70.8091 36.48V23.72C70.8091 22.0133 69.9577 21.16 68.2552 21.16C67.0846 21.16 65.8077 21.7467 64.4244 22.92V36.52C64.4244 37.56 64.8899 38.2133 65.821 38.48L66.1802 38.6V39H56.8027ZM87.2592 39.6C85.5567 39.6 84.2265 39.1733 83.2688 38.32C82.3377 37.4667 81.8721 36.1067 81.8721 34.24V20.56H79.1187V20.16L80.0764 20C80.9012 19.8133 81.6062 19.5467 82.1914 19.2C82.8033 18.8533 83.4019 18.3867 83.9871 17.8L87.2592 14.16H87.6582L87.5385 19.76H92.0078V20.56H87.4986V34.96C87.4986 35.8933 87.6981 36.6 88.0972 37.08C88.5229 37.56 89.0549 37.8 89.6934 37.8C90.252 37.8 90.7442 37.6667 91.1698 37.4C91.5955 37.1067 92.0212 36.72 92.4467 36.24L92.8458 36.64C92.3138 37.5467 91.5822 38.2667 90.6511 38.8C89.72 39.3333 88.5894 39.6 87.2592 39.6ZM103.995 19.16C105.724 19.16 107.2 19.52 108.425 20.24C109.649 20.9333 110.579 21.8933 111.218 23.12C111.883 24.32 112.215 25.6933 112.215 27.24C112.215 27.5333 112.202 27.84 112.176 28.16C112.149 28.4533 112.096 28.72 112.016 28.96H100.124C100.151 31.84 100.656 33.92 101.641 35.2C102.651 36.4533 104.142 37.08 106.11 37.08C107.44 37.08 108.517 36.8667 109.342 36.44C110.167 36.0133 110.938 35.3867 111.657 34.56L112.056 34.92C111.231 36.3867 110.127 37.5333 108.744 38.36C107.387 39.1867 105.751 39.6 103.836 39.6C101.947 39.6 100.271 39.2 98.8075 38.4C97.3443 37.5733 96.2003 36.4 95.3757 34.88C94.551 33.36 94.1387 31.5467 94.1387 29.44C94.1387 27.2533 94.6175 25.4 95.5752 23.88C96.5329 22.3333 97.7566 21.16 99.2464 20.36C100.763 19.56 102.346 19.16 103.995 19.16ZM103.875 19.96C103.104 19.96 102.439 20.2 101.88 20.68C101.348 21.1333 100.923 21.96 100.603 23.16C100.311 24.3333 100.151 26 100.124 28.16H106.948C107.214 25.2533 107.108 23.16 106.629 21.88C106.15 20.6 105.232 19.96 103.875 19.96ZM114.204 39V38.6L114.802 38.44C115.335 38.28 115.694 38.04 115.88 37.72C116.093 37.4 116.199 36.9867 116.199 36.48V23.96C116.199 23.3733 116.093 22.9467 115.88 22.68C115.694 22.3867 115.335 22.1867 114.802 22.08L114.204 21.92V21.52L121.067 19.2L121.466 19.6L121.825 23.04V23.36C122.198 22.6133 122.677 21.9333 123.262 21.32C123.874 20.68 124.539 20.16 125.257 19.76C126.002 19.36 126.734 19.16 127.452 19.16C128.463 19.16 129.235 19.44 129.766 20C130.299 20.56 130.564 21.2667 130.564 22.12C130.564 23.0267 130.299 23.7333 129.766 24.24C129.261 24.72 128.649 24.96 127.931 24.96C126.813 24.96 125.83 24.4 124.978 23.28L124.898 23.2C124.633 22.8267 124.326 22.6267 123.98 22.6C123.635 22.5467 123.316 22.7067 123.022 23.08C122.757 23.32 122.531 23.6133 122.344 23.96C122.184 24.28 122.025 24.6533 121.865 25.08V36.24C121.865 37.3067 122.331 37.9733 123.262 38.24L124.539 38.6V39H114.204ZM131.818 39V38.6L132.377 38.44C133.308 38.1733 133.774 37.52 133.774 36.48V23.96C133.774 23.3733 133.68 22.9467 133.494 22.68C133.308 22.3867 132.949 22.1867 132.417 22.08L131.818 21.92V21.52L138.642 19.2L139.041 19.6L139.36 22C140.291 21.1733 141.341 20.4933 142.513 19.96C143.683 19.4267 144.84 19.16 145.984 19.16C147.74 19.16 149.083 19.64 150.015 20.6C150.972 21.56 151.451 23.0267 151.451 25V36.52C151.451 37.56 151.956 38.2133 152.968 38.48L153.327 38.6V39H143.909V38.6L144.428 38.44C145.359 38.1467 145.825 37.4933 145.825 36.48V23.72C145.825 22.0133 144.973 21.16 143.271 21.16C142.1 21.16 140.823 21.7467 139.44 22.92V36.52C139.44 37.56 139.905 38.2133 140.837 38.48L141.196 38.6V39H131.818ZM164.984 39.6C162.962 39.6 161.206 39.1867 159.716 38.36C158.226 37.5067 157.069 36.3067 156.245 34.76C155.447 33.2133 155.048 31.4 155.048 29.32C155.048 27.24 155.473 25.44 156.325 23.92C157.202 22.4 158.386 21.2267 159.876 20.4C161.392 19.5733 163.094 19.16 164.984 19.16C166.872 19.16 168.561 19.5733 170.052 20.4C171.541 21.2 172.711 22.36 173.563 23.88C174.441 25.4 174.88 27.2133 174.88 29.32C174.88 31.4267 174.467 33.2533 173.643 34.8C172.845 36.32 171.701 37.5067 170.211 38.36C168.748 39.1867 167.005 39.6 164.984 39.6ZM164.984 38.8C165.915 38.8 166.66 38.5333 167.218 38C167.777 37.4667 168.176 36.52 168.416 35.16C168.681 33.8 168.815 31.88 168.815 29.4C168.815 26.8933 168.681 24.96 168.416 23.6C168.176 22.24 167.777 21.2933 167.218 20.76C166.66 20.2267 165.915 19.96 164.984 19.96C164.052 19.96 163.294 20.2267 162.709 20.76C162.151 21.2933 161.738 22.24 161.472 23.6C161.233 24.96 161.113 26.8933 161.113 29.4C161.113 31.88 161.233 33.8 161.472 35.16C161.738 36.52 162.151 37.4667 162.709 38C163.294 38.5333 164.052 38.8 164.984 38.8Z" fill="#292F36"/>
<path d="M0 42.0003H13.4588V32.499C13.4588 30.4853 15.0898 28.8543 17.1035 28.8543C19.1172 28.8543 20.7482 30.4853 20.7482 32.499V42.0003H33.9975V8C15.2211 8 0 23.2211 0 42.0003Z" fill="#CDA274"/>
</svg>
