<svg width="30" height="31" viewBox="0 0 30 31" fill="none" xmlns="http://www.w3.org/2000/svg">
<rect width="30" height="30" transform="translate(0 0.796875)" fill="white"/>
<path d="M15.3311 11.8232C12.9561 11.8232 11.0635 13.7529 11.0635 16.0908C11.0635 18.4658 12.9561 20.3584 15.3311 20.3584C17.669 20.3584 19.5987 18.4658 19.5987 16.0908C19.5987 13.7529 17.669 11.8232 15.3311 11.8232ZM15.3311 18.874C13.8096 18.874 12.5479 17.6494 12.5479 16.0908C12.5479 14.5693 13.7725 13.3447 15.3311 13.3447C16.8526 13.3447 18.0772 14.5693 18.0772 16.0908C18.0772 17.6494 16.8526 18.874 15.3311 18.874ZM20.7491 11.6748C20.7491 11.1182 20.3038 10.6729 19.7471 10.6729C19.1905 10.6729 18.7452 11.1182 18.7452 11.6748C18.7452 12.2314 19.1905 12.6768 19.7471 12.6768C20.3038 12.6768 20.7491 12.2314 20.7491 11.6748ZM23.5694 12.6768C23.4952 11.3408 23.1983 10.1533 22.2334 9.18848C21.2686 8.22363 20.0811 7.92676 18.7452 7.85254C17.3721 7.77832 13.2529 7.77832 11.8799 7.85254C10.5439 7.92676 9.39355 8.22363 8.3916 9.18848C7.42676 10.1533 7.12988 11.3408 7.05566 12.6768C6.98145 14.0498 6.98145 18.1689 7.05566 19.542C7.12988 20.8779 7.42676 22.0283 8.3916 23.0303C9.39355 23.9951 10.5439 24.292 11.8799 24.3662C13.2529 24.4404 17.3721 24.4404 18.7452 24.3662C20.0811 24.292 21.2686 23.9951 22.2334 23.0303C23.1983 22.0283 23.4952 20.8779 23.5694 19.542C23.6436 18.1689 23.6436 14.0498 23.5694 12.6768ZM21.7881 20.9893C21.5284 21.7314 20.9346 22.2881 20.2295 22.585C19.1163 23.0303 16.5186 22.9189 15.3311 22.9189C14.1064 22.9189 11.5088 23.0303 10.4326 22.585C9.69043 22.2881 9.13378 21.7314 8.83691 20.9893C8.3916 19.9131 8.50293 17.3154 8.50293 16.0908C8.50293 14.9033 8.3916 12.3057 8.83691 11.1924C9.13378 10.4873 9.69043 9.93066 10.4326 9.63379C11.5088 9.18848 14.1064 9.2998 15.3311 9.2998C16.5186 9.2998 19.1163 9.18848 20.2295 9.63379C20.9346 9.89355 21.4913 10.4873 21.7881 11.1924C22.2334 12.3057 22.1221 14.9033 22.1221 16.0908C22.1221 17.3154 22.2334 19.9131 21.7881 20.9893Z" fill="#292F36"/>
</svg>
