<svg width="30" height="31" viewBox="0 0 30 31" fill="none" xmlns="http://www.w3.org/2000/svg">
<rect width="30" height="30" transform="translate(0 0.796875)" fill="white"/>
<path d="M10.5156 23.5117V13H7.24609V23.5117H10.5156ZM8.86328 11.5938C9.91797 11.5938 10.7617 10.7148 10.7617 9.66016C10.7617 8.64063 9.91797 7.79688 8.86328 7.79688C7.84375 7.79688 7 8.64063 7 9.66016C7 10.7148 7.84375 11.5938 8.86328 11.5938ZM22.7148 23.5117H22.75V17.7461C22.75 14.9336 22.1172 12.7539 18.8125 12.7539C17.2305 12.7539 16.1758 13.6328 15.7188 14.4414H15.6836V13H12.5547V23.5117H15.8242V18.3086C15.8242 16.9375 16.0703 15.6367 17.7578 15.6367C19.4453 15.6367 19.4805 17.1836 19.4805 18.4141V23.5117H22.7148Z" fill="#292F36"/>
</svg>
