<svg width="30" height="31" viewBox="0 0 30 31" fill="none" xmlns="http://www.w3.org/2000/svg">
<rect width="30" height="30" transform="translate(0 0.796875)" fill="white"/>
<path d="M22.1367 12.418C22.8398 11.8906 23.4727 11.2578 23.9648 10.5195C23.332 10.8008 22.5938 11.0117 21.8555 11.082C22.6289 10.625 23.1914 9.92188 23.4727 9.04297C22.7695 9.46484 21.9609 9.78125 21.1523 9.95703C20.4492 9.21875 19.5 8.79688 18.4453 8.79688C16.4062 8.79688 14.7539 10.4492 14.7539 12.4883C14.7539 12.7695 14.7891 13.0508 14.8594 13.332C11.8008 13.1563 9.05859 11.6797 7.23047 9.46484C6.91406 9.99219 6.73828 10.625 6.73828 11.3281C6.73828 12.5938 7.37109 13.7188 8.39062 14.3867C7.79297 14.3516 7.19531 14.2109 6.70312 13.9297V13.9648C6.70312 15.7578 7.96875 17.2344 9.65625 17.5859C9.375 17.6562 9.02344 17.7266 8.70703 17.7266C8.46094 17.7266 8.25 17.6914 8.00391 17.6562C8.46094 19.1328 9.83203 20.1875 11.4492 20.2227C10.1836 21.207 8.60156 21.8047 6.87891 21.8047C6.5625 21.8047 6.28125 21.7695 6 21.7344C7.61719 22.7891 9.55078 23.3867 11.6602 23.3867C18.4453 23.3867 22.1367 17.7969 22.1367 12.9102C22.1367 12.7344 22.1367 12.5938 22.1367 12.418Z" fill="#292F36"/>
</svg>
